<svg xmlns="http://www.w3.org/2000/svg" width="1121" height="437" viewBox="0 0 1121 437" version="1.1">
	<path d="M 517.379 98.984 C 514.145 103.926, 510.999 107.976, 510.388 107.984 C 509.776 107.993, 506.136 106.705, 502.299 105.123 L 495.322 102.246 476.411 127.373 L 457.500 152.500 453.500 152.114 C 451.300 151.902, 448.739 151.677, 447.809 151.614 C 446.292 151.512, 421.650 177.983, 422.485 178.818 C 422.664 178.998, 433.622 178.437, 446.836 177.572 C 460.050 176.707, 471.511 176, 472.304 176 C 473.292 176, 473.891 174.506, 474.210 171.250 C 474.465 168.637, 475.713 163.012, 476.982 158.750 L 479.291 151 487.396 150.995 L 495.500 150.991 502.471 136.333 C 510.063 120.370, 514.481 113, 516.458 113 C 517.157 113, 518.473 111.051, 519.382 108.669 C 521.484 103.166, 524.426 100, 527.440 100 C 531.338 100, 577.518 124.794, 579.454 127.926 C 579.765 128.429, 572.325 139.936, 562.921 153.498 C 553.517 167.060, 545.975 178.303, 546.161 178.482 C 546.347 178.662, 550.550 177.079, 555.500 174.965 C 560.450 172.850, 568.531 169.956, 573.458 168.532 C 578.385 167.109, 582.766 165.394, 583.193 164.722 C 583.620 164.050, 583.976 161.363, 583.985 158.750 C 584.006 152.259, 585.977 150.529, 595.139 148.963 C 599.188 148.271, 603.011 147.209, 603.635 146.603 C 604.260 145.996, 605.530 141.900, 606.457 137.500 C 609.247 124.264, 612.125 114.141, 613.398 113.084 C 614.263 112.367, 618.203 115.447, 627.458 124.077 C 634.530 130.671, 649.780 143.363, 661.346 152.283 C 672.913 161.202, 685.217 170.874, 688.688 173.776 C 692.160 176.677, 695 178.788, 695 178.467 C 695 177.554, 658.012 125.533, 657.147 125.229 C 656.723 125.081, 654.428 127.648, 652.047 130.935 L 647.718 136.911 646.036 134.705 C 645.111 133.492, 638.987 124.649, 632.427 115.052 C 625.867 105.456, 620.206 97.175, 619.846 96.649 C 619.486 96.123, 611.313 100.741, 601.682 106.912 L 584.172 118.131 567.836 106.276 C 558.851 99.757, 550.941 94.078, 550.258 93.657 C 549.519 93.202, 547.163 94.168, 544.434 96.045 L 539.851 99.198 532.399 94.599 C 528.300 92.070, 524.566 90, 524.102 90 C 523.637 90, 520.612 94.043, 517.379 98.984 M 649 281.528 L 649 345.056 662.750 344.778 L 676.500 344.500 677 321 C 677.498 297.573, 677.509 297.485, 680.249 292.823 C 684.159 286.173, 687.465 283.836, 692.446 284.202 C 695.953 284.460, 696.736 284.972, 698.248 288 C 699.782 291.070, 699.997 294.786, 699.998 318.250 L 700 345 714.062 345 L 728.124 345 727.778 312.250 C 727.394 275.948, 727.060 273.818, 720.707 267.132 C 715.904 262.076, 710.689 260.048, 702.432 260.022 C 693.131 259.993, 685.835 262.251, 680.940 266.673 L 677 270.233 677 244.116 L 677 218 663 218 L 649 218 649 281.528 M 218.058 229.225 C 218.090 229.926, 227.429 256.150, 238.810 287.500 L 259.505 344.500 271.514 344.779 L 283.523 345.058 293.467 316.893 C 298.935 301.403, 303.609 289.327, 303.853 290.059 C 304.097 290.791, 308.652 303.339, 313.976 317.945 L 323.656 344.500 335.655 344.779 L 347.654 345.059 367.347 287.279 C 378.179 255.501, 387.032 229.162, 387.020 228.750 C 387.009 228.338, 380.533 228, 372.630 228 L 358.260 228 348.140 257.879 C 342.574 274.312, 337.487 290.072, 336.834 292.901 L 335.646 298.044 333.345 290.272 C 332.080 285.997, 326.593 270.350, 321.153 255.500 L 311.262 228.500 296.131 228.224 C 287.809 228.072, 281 228.323, 281 228.780 C 281 229.238, 282.800 234.232, 285 239.877 C 287.200 245.522, 289 250.840, 289 251.694 C 289 252.548, 286.127 261.178, 282.615 270.873 C 279.103 280.568, 275.644 291.142, 274.929 294.370 L 273.628 300.241 271.388 291.870 C 270.156 287.267, 264.721 271.125, 259.310 256 L 249.472 228.500 233.736 228.225 C 221.479 228.010, 218.013 228.231, 218.058 229.225 M 583.642 246.147 C 583.289 249.527, 583 254.477, 583 257.147 L 583 262 577.500 262 L 572 262 572 272.500 L 572 283 577 283 L 582 283 582 301.951 C 582 323.544, 582.880 329.116, 587.336 335.724 C 591.967 342.592, 598.032 345.404, 609.168 345.848 C 620.242 346.289, 626.353 344.411, 631.900 338.865 C 635.826 334.939, 640.405 325.283, 639.794 322.222 C 639.632 321.413, 636.126 319.518, 632 318.009 C 619.504 313.440, 620.268 313.488, 619.477 317.211 C 618.201 323.209, 614.678 325.535, 611.571 322.429 C 610.254 321.111, 610 317.803, 610 301.929 L 610 283 621.500 283 L 633 283 633 272.500 L 633 262 621.500 262 L 610 262 610 251 L 610 240 597.142 240 L 584.285 240 583.642 246.147 M 768.780 255.030 C 754.108 257.502, 744.451 266.928, 743.273 279.928 L 742.768 285.500 754.634 287.918 C 761.160 289.248, 767.513 290.538, 768.750 290.785 C 770.846 291.202, 771 290.887, 771 286.172 C 771 279.457, 773.887 275.862, 779.405 275.706 C 786.924 275.492, 789.089 282.416, 784.428 291.770 C 780.532 299.586, 770.553 308.066, 750.750 320.386 L 743 325.207 743 335.104 L 743 345 781.500 345 L 820 345 820 333.524 L 820 322.047 802.842 321.774 L 785.684 321.500 792.864 316.727 C 806.922 307.383, 812.805 300.164, 815.603 288.824 C 817.574 280.837, 816.412 273.617, 812.045 266.732 C 805.879 257.009, 787.131 251.939, 768.780 255.030 M 419 261.823 C 411.101 264.458, 408.043 266.279, 403.307 271.170 C 398.506 276.128, 394.555 284.031, 392.893 292 C 391.218 300.033, 392.289 316.155, 394.969 323.247 C 397.823 330.797, 405.409 339.072, 412.810 342.706 C 418.341 345.422, 418.961 345.500, 435 345.500 C 450.380 345.500, 451.830 345.338, 456.358 343.108 C 464.010 339.342, 469.905 332.454, 472.404 324.360 C 473.099 322.108, 473.113 322.112, 451.380 318.364 C 448.642 317.892, 448.179 318.151, 447.595 320.479 C 446.336 325.492, 436.834 327.518, 429.097 324.422 C 424.975 322.773, 422.818 319.536, 421.653 313.250 L 421.050 310 447.025 310 L 473 310 473 302.136 C 473 281.975, 466.552 269.360, 453.086 263.173 C 445.511 259.693, 427.523 258.980, 419 261.823 M 506.500 261.409 C 493.763 264.565, 485 273.133, 485 282.431 C 485 285.279, 485.435 286.058, 487.250 286.459 C 490.954 287.277, 511.441 290.997, 512.250 290.998 C 512.663 290.999, 513 289.495, 513 287.655 C 513 282.489, 516.397 280.333, 523.727 280.844 C 526.619 281.046, 528.618 284.330, 529.453 290.250 L 530.123 295 524.019 295 C 516.714 295, 504.655 297.362, 498.508 299.997 C 491.267 303.101, 485.237 309.377, 483.389 315.735 C 480.687 325.029, 483.554 335.318, 490.241 340.324 C 496.891 345.303, 499.350 346, 510.255 346 C 519.962 346, 520.894 345.819, 525.183 343.099 C 527.699 341.503, 530.583 339.104, 531.591 337.767 L 533.425 335.335 535.463 338.331 C 538.929 343.427, 544.280 345.500, 553.970 345.500 L 562.440 345.500 564.693 335.500 C 567.523 322.939, 567.528 323.176, 564.465 323.762 C 562.878 324.065, 561.195 323.581, 559.965 322.468 C 558.185 320.857, 557.998 319.319, 557.980 306.095 C 557.957 289.125, 556.771 279.432, 554.070 274.138 C 551.237 268.585, 544.915 263.349, 538.878 261.556 C 532.526 259.670, 513.861 259.585, 506.500 261.409 M 871.737 262.952 C 869.177 264.575, 865.714 267.793, 864.041 270.102 L 861 274.300 861 268.150 L 861 262 848 262 L 835 262 835 303.500 L 835 345 849 345 L 863 345 863 324.011 C 863 305.572, 863.239 302.393, 864.964 297.853 C 868.867 287.580, 875.443 284.176, 881.036 289.535 L 883.682 292.070 891.824 280.326 C 901.044 267.029, 901.074 266.551, 892.987 262.275 C 886.439 258.812, 877.832 259.087, 871.737 262.952 M 427.117 281.631 C 424.778 283.269, 422 288.610, 422 291.468 C 422 292.750, 423.773 293, 432.866 293 L 443.731 293 442.991 289.250 C 442.584 287.188, 441.944 284.773, 441.570 283.885 C 439.978 280.107, 431.239 278.744, 427.117 281.631 M 519 312.172 C 514.002 313.587, 511 316.720, 511 320.519 C 511 326.420, 516.634 328.691, 523.358 325.500 C 527.333 323.614, 528.880 321.152, 529.658 315.478 L 530.272 311 526.386 311.090 C 524.249 311.140, 520.925 311.626, 519 312.172" stroke="none" fill="#ffd056" fill-rule="evenodd" stroke-width="0.5"/>
</svg>