<svg xmlns="http://www.w3.org/2000/svg" width="163" height="164" viewBox="0 0 163 164" version="1.1">
	<path d="M 63.962 68.561 C 62.366 71.143, 61.313 71.931, 60.131 71.426 C 55.914 69.625, 54.571 70.524, 47.308 80 C 41.899 87.058, 39.445 89.500, 37.764 89.500 C 36.300 89.500, 33.593 91.532, 30.105 95.250 L 24.710 101 29.105 100.993 C 31.522 100.989, 36.538 100.699, 40.250 100.348 C 45.697 99.834, 47 99.381, 47 98.005 C 47 97.066, 47.494 94.881, 48.098 93.149 C 49.020 90.505, 49.707 90, 52.383 90 C 55.323 90, 55.829 89.475, 58.899 83.250 C 60.730 79.538, 63.565 74.811, 65.200 72.747 L 68.172 68.995 76.907 73.506 C 90.820 80.692, 90.299 79.124, 82.507 90.378 C 78.803 95.728, 76.007 100.340, 76.293 100.627 C 76.580 100.913, 78.093 100.486, 79.657 99.679 C 81.221 98.871, 84.357 97.710, 86.626 97.100 C 90.039 96.182, 90.855 95.477, 91.346 93.022 C 91.789 90.807, 92.646 89.898, 94.720 89.443 C 99.576 88.377, 99.798 88.199, 100.488 84.818 C 100.860 82.993, 101.611 79.750, 102.158 77.612 L 103.151 73.724 107.826 78.267 C 113.528 83.808, 135.235 101.099, 135.791 100.543 C 136.093 100.241, 123.742 81.942, 121.251 79 C 121.018 78.725, 120.007 79.513, 119.004 80.750 C 118 81.987, 116.971 83, 116.716 83 C 116.461 83, 113.889 79.400, 111 75 C 108.111 70.600, 105.555 67, 105.319 67 C 105.083 67, 102.327 68.722, 99.195 70.826 C 96.063 72.930, 92.984 74.953, 92.353 75.321 C 91.723 75.689, 88.573 74.058, 85.353 71.696 C 77.260 65.758, 77.293 65.773, 74.954 67.025 C 73.324 67.897, 72.340 67.798, 70.468 66.571 C 67.083 64.353, 66.442 64.549, 63.962 68.561" stroke="none" fill="#0088cc" fill-rule="evenodd" stroke-width="0.5"/>
</svg>